REM DIRINDEX 1\2\3,1\2\4,1\2\5,1\2\6
REM DIRNAME cjc157,folder01,folder02,folder03,folder04,folder05
TITLE ""
FILE "156 156.mp3" MP3
  TRACK 01 AUDIO
    TITLE "0:"
    INDEX 01 00:00:00
  TRACK 02 AUDIO
    TITLE "3:cjc157_5728"
    INDEX 01 00:00:11
  TRACK 03 AUDIO
    TITLE "0:"
    INDEX 01 00:01:40
  TRACK 04 AUDIO
    TITLE "4:cjc157_5729"
    INDEX 01 00:02:14
  TRACK 05 AUDIO
    TITLE "0:"
    INDEX 01 00:03:33
  TRACK 06 AUDIO
    TITLE "5:cjc157_5730"
    INDEX 01 00:04:01
  TRACK 07 AUDIO
    TITLE "0:"
    INDEX 01 00:08:23
  TRACK 08 AUDIO
    TITLE "3:cjc157_5731"
    INDEX 01 00:08:72
  TRACK 09 AUDIO
    TITLE "0:"
    INDEX 01 00:10:33
  TRACK 10 AUDIO
    TITLE "4:cjc157_5732"
    INDEX 01 00:11:05
  TRACK 11 AUDIO
    TITLE "0:"
    INDEX 01 00:12:22
  TRACK 12 AUDIO
    TITLE "5:cjc157_5733"
    INDEX 01 00:12:67
  TRACK 13 AUDIO
    TITLE "0:"
    INDEX 01 00:16:20
  TRACK 14 AUDIO
    TITLE "5:cjc157_5734"
    INDEX 01 00:16:65
  TRACK 15 AUDIO
    TITLE "0:"
    INDEX 01 00:20:06
  TRACK 16 AUDIO
    TITLE "3:cjc157_5735"
    INDEX 01 00:20:49
  TRACK 17 AUDIO
    TITLE "0:"
    INDEX 01 00:21:62
  TRACK 18 AUDIO
    TITLE "4:cjc157_5736"
    INDEX 01 00:22:32
  TRACK 19 AUDIO
    TITLE "0:"
    INDEX 01 00:23:57
  TRACK 20 AUDIO
    TITLE "5:cjc157_5737"
    INDEX 01 00:24:35
  TRACK 21 AUDIO
    TITLE "0:"
    INDEX 01 00:27:02
  TRACK 22 AUDIO
    TITLE "3:cjc157_5738"
    INDEX 01 00:27:51
  TRACK 23 AUDIO
    TITLE "0:"
    INDEX 01 00:28:45
  TRACK 24 AUDIO
    TITLE "4:cjc157_5739"
    INDEX 01 00:29:13
  TRACK 25 AUDIO
    TITLE "0:"
    INDEX 01 00:30:16
  TRACK 26 AUDIO
    TITLE "5:cjc157_5740"
    INDEX 01 00:30:71
  TRACK 27 AUDIO
    TITLE "0:"
    INDEX 01 00:34:06
  TRACK 28 AUDIO
    TITLE "3:cjc157_5741"
    INDEX 01 00:34:71
  TRACK 29 AUDIO
    TITLE "0:"
    INDEX 01 00:36:11
  TRACK 30 AUDIO
    TITLE "4:cjc157_5742"
    INDEX 01 00:36:56
  TRACK 31 AUDIO
    TITLE "0:"
    INDEX 01 00:38:00
  TRACK 32 AUDIO
    TITLE "5:cjc157_5743"
    INDEX 01 00:38:49
  TRACK 33 AUDIO
    TITLE "0:"
    INDEX 01 00:41:44
  TRACK 34 AUDIO
    TITLE "5:cjc157_5744"
    INDEX 01 00:42:14
  TRACK 35 AUDIO
    TITLE "0:"
    INDEX 01 00:45:12
  TRACK 36 AUDIO
    TITLE "3:cjc157_5745"
    INDEX 01 00:45:55
  TRACK 37 AUDIO
    TITLE "0:"
    INDEX 01 00:47:66
  TRACK 38 AUDIO
    TITLE "4:cjc157_5746"
    INDEX 01 00:48:36
  TRACK 39 AUDIO
    TITLE "0:"
    INDEX 01 00:50:60
  TRACK 40 AUDIO
    TITLE "5:cjc157_5747"
    INDEX 01 00:51:28
  TRACK 41 AUDIO
    TITLE "0:"
    INDEX 01 00:54:54
  TRACK 42 AUDIO
    TITLE "3:cjc157_5748"
    INDEX 01 00:55:26
  TRACK 43 AUDIO
    TITLE "0:"
    INDEX 01 00:56:61
  TRACK 44 AUDIO
    TITLE "4:cjc157_5749"
    INDEX 01 00:57:31
  TRACK 45 AUDIO
    TITLE "0:"
    INDEX 01 00:58:58
  TRACK 46 AUDIO
    TITLE "5:cjc157_5750"
    INDEX 01 00:59:26
  TRACK 47 AUDIO
    TITLE "0:"
    INDEX 01 01:03:69
  TRACK 48 AUDIO
    TITLE "3:cjc157_5751"
    INDEX 01 01:04:43
  TRACK 49 AUDIO
    TITLE "0:"
    INDEX 01 01:06:00
  TRACK 50 AUDIO
    TITLE "4:cjc157_5752"
    INDEX 01 01:06:47
  TRACK 51 AUDIO
    TITLE "0:"
    INDEX 01 01:07:66
  TRACK 52 AUDIO
    TITLE "5:cjc157_5753"
    INDEX 01 01:08:36
  TRACK 53 AUDIO
    TITLE "0:"
    INDEX 01 01:12:17
  TRACK 54 AUDIO
    TITLE "3:cjc157_5754"
    INDEX 01 01:12:58
  TRACK 55 AUDIO
    TITLE "0:"
    INDEX 01 01:13:59
  TRACK 56 AUDIO
    TITLE "4:cjc157_5755"
    INDEX 01 01:14:33
  TRACK 57 AUDIO
    TITLE "0:"
    INDEX 01 01:15:50
  TRACK 58 AUDIO
    TITLE "5:cjc157_5756"
    INDEX 01 01:16:26
  TRACK 59 AUDIO
    TITLE "0:"
    INDEX 01 01:20:16
  TRACK 60 AUDIO
    TITLE "3:cjc157_5757"
    INDEX 01 01:20:61
  TRACK 61 AUDIO
    TITLE "0:"
    INDEX 01 01:22:11
  TRACK 62 AUDIO
    TITLE "4:cjc157_5758"
    INDEX 01 01:22:58
  TRACK 63 AUDIO
    TITLE "0:"
    INDEX 01 01:24:06
  TRACK 64 AUDIO
    TITLE "5:cjc157_5759"
    INDEX 01 01:24:51
  TRACK 65 AUDIO
    TITLE "0:"
    INDEX 01 01:28:20
